<?xml version="1.0" standalone="no"?><!DOCTYPE svg PUBLIC "-//W3C//DTD SVG 1.1//EN" "http://www.w3.org/Graphics/SVG/1.1/DTD/svg11.dtd"><svg t="1699964987559" class="icon" viewBox="0 0 1024 1024" version="1.1" xmlns="http://www.w3.org/2000/svg" p-id="2652" xmlns:xlink="http://www.w3.org/1999/xlink" width="32" height="32"><path d="M512 937.353846c-7.876923 0-15.753846-3.150769-22.055385-9.452308l-106.338461-106.338461H233.156923c-17.329231 0-31.507692-14.178462-31.507692-31.507692v-149.661539L96.098462 534.055385c-12.603077-12.603077-12.603077-32.295385 0-44.898462l106.338461-106.338461v-149.661539c0-17.329231 14.178462-31.507692 31.507692-31.507692h150.449231l106.338462-106.338462c12.603077-12.603077 32.295385-12.603077 44.898461 0l106.338462 106.338462h150.449231c17.329231 0 31.507692 14.178462 31.507692 31.507692v150.449231l106.338461 106.338461c12.603077 12.603077 12.603077 32.295385 0 44.898462l-106.338461 106.338461v150.449231c0 17.329231-14.178462 31.507692-31.507692 31.507693H640.393846L534.055385 929.476923c-6.301538 4.726154-14.178462 7.876923-22.055385 7.876923zM264.664615 759.335385h131.544616c8.664615 0 16.541538 3.150769 22.055384 9.452307L512 860.947692l92.947692-92.947692c6.301538-6.301538 14.178462-9.452308 22.055385-9.452308h131.544615V627.003077c0-8.664615 3.150769-16.541538 9.452308-22.055385L860.947692 512 768 419.052308c-6.301538-6.301538-9.452308-14.178462-9.452308-22.055385V264.664615H627.003077c-8.664615 0-16.541538-3.150769-22.055385-9.452307L512 163.052308 419.052308 256c-6.301538 6.301538-14.178462 9.452308-22.055385 9.452308H264.664615v131.544615c0 8.664615-3.150769 16.541538-9.452307 22.055385L163.052308 512l92.947692 92.947692c6.301538 6.301538 9.452308 14.178462 9.452308 22.055385v132.332308z" fill="#7F7F7F" p-id="2653"></path><path d="M512 512m-157.538462 0a157.538462 157.538462 0 1 0 315.076924 0 157.538462 157.538462 0 1 0-315.076924 0Z" fill="#BFBFBF" p-id="2654"></path><path d="M512 701.046154c-103.975385 0-189.046154-85.070769-189.046154-189.046154s85.070769-189.046154 189.046154-189.046154 189.046154 85.070769 189.046154 189.046154-85.070769 189.046154-189.046154 189.046154z m0-315.076923c-69.316923 0-126.030769 56.713846-126.030769 126.030769s56.713846 126.030769 126.030769 126.030769 126.030769-56.713846 126.030769-126.030769-56.713846-126.030769-126.030769-126.030769z" fill="#7F7F7F" p-id="2655"></path></svg>